<svg xmlns="http://www.w3.org/2000/svg" xmlns:xlink="http://www.w3.org/1999/xlink"
    zoomAndPan="magnify" viewBox="0 0 337.5 74.999997" height="100"
    preserveAspectRatio="xMidYMid meet" version="1.0">
    <defs>
        <g />
        <clipPath id="a0b4c27d52">
            <path
                d="M 7.488281 2.378906 L 77.882812 2.378906 L 77.882812 72.777344 L 7.488281 72.777344 Z M 7.488281 2.378906 "
                clip-rule="nonzero" />
        </clipPath>
    </defs>
    <g clip-path="url(#a0b4c27d52)">
        <path fill="#f9fefd"
            d="M 42.605469 2.378906 C 62 2.378906 77.722656 18.101562 77.722656 37.496094 C 77.722656 56.890625 62 72.613281 42.605469 72.613281 C 25.207031 72.613281 10.769531 59.960938 7.976562 43.355469 C 9 46.015625 10.597656 48.785156 13.078125 50.824219 C 18.027344 54.882812 28.320312 55.683594 34.679688 48.882812 C 32.519531 47.394531 31.878906 46.878906 30.363281 44.566406 C 23.015625 48.203125 7.488281 47.765625 7.488281 37.496094 C 7.488281 18.101562 23.210938 2.378906 42.605469 2.378906 Z M 14.761719 36.496094 L 14.148438 35.800781 L 13.222656 35.746094 C 13.148438 35.738281 13.089844 35.675781 13.09375 35.601562 C 13.097656 35.578125 13.101562 35.558594 13.113281 35.542969 L 13.582031 34.742188 L 13.351562 33.84375 C 13.332031 33.769531 13.378906 33.695312 13.449219 33.675781 C 13.472656 33.671875 13.5 33.671875 13.519531 33.679688 L 14.417969 33.878906 L 15.199219 33.378906 C 15.265625 33.339844 15.347656 33.359375 15.386719 33.421875 C 15.398438 33.441406 15.40625 33.460938 15.410156 33.480469 L 15.5 34.402344 L 16.214844 34.996094 C 16.269531 35.042969 16.28125 35.128906 16.230469 35.183594 C 16.21875 35.203125 16.199219 35.214844 16.175781 35.226562 L 15.332031 35.59375 L 14.988281 36.457031 C 14.964844 36.527344 14.882812 36.558594 14.816406 36.53125 C 14.792969 36.523438 14.773438 36.511719 14.761719 36.496094 Z M 21.71875 25.402344 L 20.460938 23.984375 L 18.570312 23.867188 C 18.417969 23.859375 18.300781 23.726562 18.3125 23.574219 C 18.3125 23.53125 18.328125 23.488281 18.347656 23.453125 L 19.308594 21.816406 L 18.835938 19.980469 C 18.796875 19.832031 18.886719 19.679688 19.035156 19.640625 C 19.085938 19.628906 19.136719 19.632812 19.179688 19.644531 L 21.015625 20.050781 L 22.617188 19.03125 C 22.746094 18.949219 22.917969 18.988281 23 19.117188 C 23.023438 19.15625 23.035156 19.195312 23.039062 19.238281 L 23.222656 21.125 L 24.6875 22.332031 C 24.804688 22.429688 24.820312 22.605469 24.722656 22.722656 C 24.691406 22.761719 24.652344 22.789062 24.609375 22.804688 L 22.882812 23.558594 L 22.183594 25.324219 C 22.128906 25.464844 21.96875 25.535156 21.824219 25.480469 C 21.78125 25.460938 21.746094 25.4375 21.71875 25.402344 Z M 29.222656 60.902344 L 28.605469 60.207031 L 27.679688 60.152344 C 27.605469 60.144531 27.550781 60.082031 27.554688 60.007812 C 27.554688 59.984375 27.5625 59.964844 27.574219 59.945312 L 28.042969 59.148438 L 27.8125 58.25 C 27.792969 58.175781 27.835938 58.101562 27.910156 58.082031 C 27.933594 58.078125 27.957031 58.078125 27.980469 58.085938 L 28.878906 58.28125 L 29.660156 57.785156 C 29.722656 57.746094 29.808594 57.765625 29.847656 57.828125 C 29.859375 57.84375 29.867188 57.867188 29.867188 57.886719 L 29.957031 58.808594 L 30.671875 59.398438 C 30.730469 59.449219 30.738281 59.535156 30.691406 59.589844 C 30.675781 59.609375 30.65625 59.621094 30.636719 59.632812 L 29.792969 60 L 29.449219 60.863281 C 29.421875 60.933594 29.34375 60.96875 29.273438 60.9375 C 29.253906 60.929688 29.234375 60.917969 29.222656 60.902344 Z M 38.71875 68.441406 L 38.105469 67.746094 L 37.179688 67.691406 C 37.105469 67.6875 37.046875 67.621094 37.050781 67.546875 C 37.054688 67.523438 37.058594 67.503906 37.070312 67.484375 L 37.539062 66.6875 L 37.308594 65.789062 C 37.289062 65.714844 37.335938 65.640625 37.40625 65.625 C 37.429688 65.617188 37.457031 65.617188 37.476562 65.625 L 38.375 65.824219 L 39.160156 65.324219 C 39.222656 65.285156 39.304688 65.304688 39.34375 65.367188 C 39.355469 65.386719 39.363281 65.40625 39.367188 65.425781 L 39.457031 66.347656 L 40.171875 66.941406 C 40.226562 66.988281 40.238281 67.074219 40.1875 67.132812 C 40.171875 67.148438 40.152344 67.164062 40.132812 67.171875 L 39.289062 67.539062 L 38.945312 68.402344 C 38.921875 68.472656 38.839844 68.507812 38.773438 68.480469 C 38.75 68.46875 38.730469 68.457031 38.71875 68.441406 Z M 51.136719 65.902344 L 50.519531 65.207031 L 49.59375 65.148438 C 49.519531 65.144531 49.464844 65.082031 49.46875 65.003906 C 49.46875 64.984375 49.476562 64.964844 49.488281 64.945312 L 49.957031 64.144531 L 49.726562 63.246094 C 49.707031 63.175781 49.75 63.101562 49.824219 63.082031 C 49.847656 63.078125 49.871094 63.078125 49.894531 63.082031 L 50.792969 63.28125 L 51.574219 62.785156 C 51.636719 62.742188 51.722656 62.761719 51.761719 62.824219 C 51.773438 62.84375 51.78125 62.863281 51.78125 62.882812 L 51.871094 63.808594 L 52.585938 64.398438 C 52.644531 64.445312 52.652344 64.53125 52.605469 64.589844 C 52.589844 64.609375 52.570312 64.621094 52.550781 64.628906 L 51.703125 65 L 51.363281 65.859375 C 51.335938 65.929688 51.257812 65.964844 51.1875 65.9375 C 51.167969 65.929688 51.148438 65.914062 51.136719 65.902344 Z M 69.28125 34.371094 L 68.667969 33.675781 L 67.742188 33.621094 C 67.667969 33.613281 67.609375 33.550781 67.613281 33.476562 C 67.617188 33.453125 67.621094 33.433594 67.632812 33.414062 L 68.101562 32.617188 L 67.871094 31.71875 C 67.851562 31.644531 67.898438 31.570312 67.96875 31.550781 C 67.992188 31.546875 68.019531 31.546875 68.039062 31.554688 L 68.9375 31.75 L 69.71875 31.253906 C 69.785156 31.214844 69.867188 31.234375 69.90625 31.296875 C 69.917969 31.3125 69.925781 31.335938 69.925781 31.355469 L 69.929688 31.355469 L 70.019531 32.277344 L 70.734375 32.867188 C 70.789062 32.917969 70.800781 33.003906 70.75 33.058594 C 70.734375 33.078125 70.714844 33.089844 70.695312 33.101562 L 69.851562 33.46875 L 69.511719 34.332031 C 69.480469 34.402344 69.402344 34.4375 69.332031 34.40625 C 69.3125 34.398438 69.292969 34.386719 69.28125 34.371094 Z M 71.25 45.59375 L 70.636719 44.902344 L 69.710938 44.84375 C 69.632812 44.839844 69.578125 44.773438 69.582031 44.699219 C 69.585938 44.679688 69.589844 44.65625 69.601562 44.640625 L 70.070312 43.839844 L 69.839844 42.941406 C 69.820312 42.867188 69.863281 42.792969 69.9375 42.777344 C 69.960938 42.769531 69.988281 42.769531 70.007812 42.777344 L 70.90625 42.976562 L 71.6875 42.476562 C 71.753906 42.4375 71.835938 42.457031 71.875 42.519531 C 71.886719 42.539062 71.894531 42.558594 71.894531 42.578125 L 71.984375 43.503906 L 72.699219 44.09375 C 72.757812 44.140625 72.765625 44.226562 72.71875 44.285156 C 72.703125 44.304688 72.683594 44.316406 72.664062 44.324219 L 71.820312 44.691406 L 71.476562 45.554688 C 71.449219 45.625 71.371094 45.660156 71.300781 45.632812 C 71.28125 45.625 71.261719 45.609375 71.25 45.59375 Z M 59.34375 59.609375 L 58.085938 58.191406 L 56.191406 58.074219 C 56.042969 58.066406 55.925781 57.933594 55.933594 57.78125 C 55.9375 57.738281 55.953125 57.695312 55.972656 57.660156 L 56.933594 56.023438 L 56.460938 54.1875 C 56.421875 54.039062 56.511719 53.886719 56.660156 53.851562 C 56.710938 53.835938 56.761719 53.839844 56.804688 53.851562 L 58.640625 54.257812 L 60.242188 53.238281 C 60.371094 53.15625 60.539062 53.195312 60.621094 53.324219 C 60.648438 53.363281 60.660156 53.402344 60.664062 53.445312 L 60.847656 55.335938 L 62.308594 56.542969 C 62.425781 56.636719 62.445312 56.8125 62.347656 56.929688 C 62.316406 56.96875 62.277344 56.996094 62.234375 57.011719 L 60.507812 57.765625 L 59.808594 59.53125 C 59.753906 59.671875 59.59375 59.742188 59.449219 59.6875 C 59.40625 59.667969 59.371094 59.644531 59.34375 59.609375 Z M 60.847656 47.160156 L 60.234375 46.464844 L 59.308594 46.40625 C 59.234375 46.402344 59.175781 46.339844 59.179688 46.265625 C 59.183594 46.242188 59.1875 46.222656 59.199219 46.203125 L 59.667969 45.402344 L 59.4375 44.503906 C 59.417969 44.433594 59.464844 44.359375 59.535156 44.339844 C 59.558594 44.335938 59.585938 44.335938 59.605469 44.34375 L 60.503906 44.539062 L 61.289062 44.042969 C 61.351562 44 61.433594 44.019531 61.472656 44.082031 C 61.484375 44.101562 61.492188 44.121094 61.496094 44.140625 L 61.585938 45.066406 L 62.300781 45.65625 C 62.355469 45.703125 62.363281 45.789062 62.316406 45.847656 C 62.300781 45.867188 62.28125 45.878906 62.261719 45.886719 L 61.417969 46.257812 L 61.074219 47.121094 C 61.046875 47.1875 60.96875 47.222656 60.902344 47.195312 C 60.878906 47.1875 60.859375 47.175781 60.847656 47.160156 Z M 53.976562 12.167969 L 53.359375 11.472656 L 52.433594 11.417969 C 52.359375 11.410156 52.304688 11.347656 52.308594 11.273438 C 52.308594 11.25 52.316406 11.230469 52.328125 11.214844 L 52.796875 10.414062 L 52.566406 9.515625 C 52.546875 9.441406 52.589844 9.367188 52.664062 9.351562 C 52.6875 9.34375 52.710938 9.34375 52.734375 9.351562 L 53.632812 9.546875 L 54.414062 9.050781 C 54.476562 9.011719 54.5625 9.03125 54.601562 9.09375 C 54.613281 9.113281 54.621094 9.132812 54.621094 9.152344 L 54.710938 10.074219 L 55.425781 10.664062 C 55.484375 10.714844 55.492188 10.800781 55.445312 10.855469 C 55.429688 10.875 55.410156 10.886719 55.390625 10.898438 L 54.542969 11.265625 L 54.203125 12.128906 C 54.175781 12.199219 54.097656 12.230469 54.027344 12.207031 C 54.007812 12.195312 53.988281 12.183594 53.976562 12.167969 Z M 32.507812 14.5 L 31.894531 13.804688 L 30.96875 13.746094 C 30.894531 13.742188 30.835938 13.679688 30.839844 13.605469 C 30.84375 13.582031 30.851562 13.5625 30.859375 13.542969 L 31.332031 12.746094 L 31.097656 11.84375 C 31.082031 11.773438 31.125 11.699219 31.195312 11.679688 C 31.222656 11.675781 31.246094 11.675781 31.269531 11.683594 L 32.164062 11.878906 L 32.949219 11.382812 C 33.011719 11.34375 33.09375 11.359375 33.132812 11.421875 C 33.148438 11.441406 33.152344 11.464844 33.15625 11.484375 L 33.246094 12.40625 L 33.960938 12.996094 C 34.019531 13.046875 34.027344 13.128906 33.980469 13.1875 C 33.964844 13.207031 33.945312 13.21875 33.921875 13.226562 L 33.078125 13.597656 L 32.738281 14.460938 C 32.710938 14.53125 32.632812 14.5625 32.5625 14.535156 C 32.539062 14.527344 32.523438 14.515625 32.507812 14.5 Z M 34.699219 23.222656 L 34.085938 22.527344 L 33.160156 22.472656 C 33.085938 22.464844 33.03125 22.402344 33.035156 22.328125 C 33.035156 22.304688 33.042969 22.285156 33.054688 22.265625 L 33.523438 21.46875 L 33.289062 20.566406 C 33.273438 20.496094 33.316406 20.421875 33.386719 20.402344 C 33.414062 20.398438 33.4375 20.398438 33.460938 20.40625 L 34.359375 20.601562 L 35.140625 20.105469 C 35.203125 20.066406 35.285156 20.085938 35.328125 20.148438 C 35.339844 20.164062 35.34375 20.1875 35.347656 20.207031 L 35.4375 21.128906 L 36.152344 21.71875 C 36.210938 21.769531 36.21875 21.851562 36.171875 21.910156 C 36.15625 21.929688 36.136719 21.941406 36.117188 21.953125 L 35.269531 22.320312 L 34.929688 23.183594 C 34.902344 23.253906 34.824219 23.285156 34.753906 23.257812 C 34.730469 23.25 34.714844 23.238281 34.699219 23.222656 Z M 42.527344 12.851562 L 41.269531 11.433594 L 39.375 11.316406 C 39.222656 11.308594 39.109375 11.175781 39.117188 11.023438 C 39.121094 10.976562 39.136719 10.9375 39.15625 10.902344 L 40.117188 9.265625 L 39.644531 7.429688 C 39.605469 7.28125 39.695312 7.128906 39.84375 7.09375 C 39.894531 7.078125 39.941406 7.082031 39.988281 7.09375 L 41.824219 7.5 L 43.425781 6.480469 C 43.554688 6.398438 43.722656 6.4375 43.804688 6.566406 C 43.828125 6.605469 43.84375 6.644531 43.847656 6.6875 L 44.03125 8.578125 L 45.492188 9.785156 C 45.609375 9.878906 45.628906 10.054688 45.53125 10.171875 C 45.5 10.210938 45.460938 10.238281 45.417969 10.253906 L 43.691406 11.007812 L 42.992188 12.773438 C 42.9375 12.914062 42.777344 12.984375 42.632812 12.929688 C 42.589844 12.910156 42.554688 12.886719 42.527344 12.851562 Z M 33.824219 27.429688 C 32.3125 29.613281 30.128906 34.71875 29.300781 36.941406 C 29.300781 36.941406 24.269531 36.640625 20.152344 42.195312 C 20.152344 35.195312 26.304688 27.011719 33.824219 27.429688 Z M 52.671875 46.277344 C 50.488281 47.789062 45.382812 49.972656 43.160156 50.800781 C 43.160156 50.800781 43.460938 55.832031 37.90625 59.949219 C 44.90625 59.949219 53.085938 53.796875 52.671875 46.277344 Z M 38.808594 49.667969 C 46.914062 48.039062 53.15625 44.378906 58.289062 38.484375 C 63.632812 32.351562 65.058594 23.21875 65.058594 15.042969 C 56.878906 15.042969 47.746094 16.46875 41.617188 21.808594 C 35.722656 26.945312 32.0625 33.1875 30.429688 41.292969 C 30.105469 42.90625 37.195312 49.996094 38.808594 49.667969 Z M 53.925781 26.175781 C 51.867188 24.117188 48.53125 24.117188 46.476562 26.175781 C 44.417969 28.230469 44.417969 31.570312 46.476562 33.625 C 48.53125 35.683594 51.867188 35.683594 53.925781 33.625 C 55.984375 31.570312 55.984375 28.230469 53.925781 26.175781 "
            fill-opacity="1" fill-rule="evenodd" />
    </g>
    <g fill="#f9fefd" fill-opacity="1">
        <g transform="translate(85.968724, 48.358908)">
            <g>
                <path
                    d="M 13.109375 -18.65625 L 13.109375 -11.71875 C 13.109375 -9.820312 12.414062 -8.570312 11.03125 -7.96875 L 13 -0.515625 C 13.09375 -0.171875 12.957031 0 12.59375 0 L 9.640625 0 C 9.378906 0 9.21875 -0.128906 9.15625 -0.390625 L 7.25 -7.625 L 5.296875 -7.625 L 5.296875 -0.453125 C 5.296875 -0.148438 5.140625 0 4.828125 0 L 1.875 0 C 1.570312 0 1.421875 -0.148438 1.421875 -0.453125 L 1.421875 -22.296875 C 1.421875 -22.597656 1.570312 -22.75 1.875 -22.75 L 9.015625 -22.75 C 10.359375 -22.75 11.375 -22.398438 12.0625 -21.703125 C 12.757812 -21.015625 13.109375 -20 13.109375 -18.65625 Z M 5.296875 -11.375 L 8.109375 -11.375 C 8.867188 -11.375 9.25 -11.753906 9.25 -12.515625 L 9.25 -17.859375 C 9.25 -18.617188 8.867188 -19 8.109375 -19 L 5.296875 -19 Z M 5.296875 -11.375 " />
            </g>
        </g>
    </g>
    <g fill="#f9fefd" fill-opacity="1">
        <g transform="translate(106.414626, 48.358908)">
            <g>
                <path
                    d="M 15.125 0 L 12.109375 0 C 11.867188 0 11.71875 -0.128906 11.65625 -0.390625 L 10.859375 -4.546875 L 5.796875 -4.546875 L 5.03125 -0.390625 C 4.976562 -0.128906 4.828125 0 4.578125 0 L 1.53125 0 C 1.195312 0 1.078125 -0.160156 1.171875 -0.484375 L 5.890625 -22.359375 C 5.941406 -22.617188 6.101562 -22.75 6.375 -22.75 L 10.328125 -22.75 C 10.585938 -22.75 10.75 -22.617188 10.8125 -22.359375 L 15.53125 -0.484375 C 15.582031 -0.160156 15.445312 0 15.125 0 Z M 10.15625 -7.84375 L 8.328125 -17.78125 L 6.515625 -7.84375 Z M 10.15625 -7.84375 " />
            </g>
        </g>
    </g>
    <g fill="#f9fefd" fill-opacity="1">
        <g transform="translate(128.993098, 48.358908)">
            <g>
                <path
                    d="M 8.921875 -13.25 L 8.921875 -22.296875 C 8.921875 -22.597656 9.078125 -22.75 9.390625 -22.75 L 12.3125 -22.75 C 12.632812 -22.75 12.796875 -22.597656 12.796875 -22.296875 L 12.796875 -0.453125 C 12.796875 -0.148438 12.632812 0 12.3125 0 L 9.390625 0 C 9.078125 0 8.921875 -0.148438 8.921875 -0.453125 L 8.921875 -9.5 L 5.296875 -9.5 L 5.296875 -0.453125 C 5.296875 -0.148438 5.140625 0 4.828125 0 L 1.90625 0 C 1.582031 0 1.421875 -0.148438 1.421875 -0.453125 L 1.421875 -22.296875 C 1.421875 -22.597656 1.582031 -22.75 1.90625 -22.75 L 4.828125 -22.75 C 5.140625 -22.75 5.296875 -22.597656 5.296875 -22.296875 L 5.296875 -13.25 Z M 8.921875 -13.25 " />
            </g>
        </g>
    </g>
    <g fill="#f9fefd" fill-opacity="1">
        <g transform="translate(149.126215, 48.358908)">
            <g>
                <path
                    d="M 15.125 0 L 12.109375 0 C 11.867188 0 11.71875 -0.128906 11.65625 -0.390625 L 10.859375 -4.546875 L 5.796875 -4.546875 L 5.03125 -0.390625 C 4.976562 -0.128906 4.828125 0 4.578125 0 L 1.53125 0 C 1.195312 0 1.078125 -0.160156 1.171875 -0.484375 L 5.890625 -22.359375 C 5.941406 -22.617188 6.101562 -22.75 6.375 -22.75 L 10.328125 -22.75 C 10.585938 -22.75 10.75 -22.617188 10.8125 -22.359375 L 15.53125 -0.484375 C 15.582031 -0.160156 15.445312 0 15.125 0 Z M 10.15625 -7.84375 L 8.328125 -17.78125 L 6.515625 -7.84375 Z M 10.15625 -7.84375 " />
            </g>
        </g>
    </g>
    <g fill="#f9fefd" fill-opacity="1">
        <g transform="translate(171.704688, 48.358908)">
            <g>
                <path
                    d="M 1.3125 -22.75 L 11.765625 -22.75 C 12.078125 -22.75 12.234375 -22.597656 12.234375 -22.296875 L 12.234375 -19.453125 C 12.234375 -19.148438 12.078125 -19 11.765625 -19 L 8.46875 -19 L 8.46875 -0.453125 C 8.46875 -0.148438 8.316406 0 8.015625 0 L 5.0625 0 C 4.757812 0 4.609375 -0.148438 4.609375 -0.453125 L 4.609375 -19 L 1.3125 -19 C 1.007812 -19 0.859375 -19.148438 0.859375 -19.453125 L 0.859375 -22.296875 C 0.859375 -22.597656 1.007812 -22.75 1.3125 -22.75 Z M 1.3125 -22.75 " />
            </g>
        </g>
    </g>
    <g fill="#f9fefd" fill-opacity="1">
        <g transform="translate(190.700437, 48.358908)">
            <g />
        </g>
    </g>
    <g fill="#f9fefd" fill-opacity="1">
        <g transform="translate(203.724967, 48.358908)">
            <g>
                <path
                    d="M 13.59375 0 L 10.578125 0 C 10.253906 0 10.035156 -0.140625 9.921875 -0.421875 L 6.34375 -8.875 L 5.296875 -6.859375 L 5.296875 -0.5625 C 5.296875 -0.1875 5.101562 0 4.71875 0 L 1.984375 0 C 1.609375 0 1.421875 -0.1875 1.421875 -0.5625 L 1.421875 -22.1875 C 1.421875 -22.5625 1.609375 -22.75 1.984375 -22.75 L 4.71875 -22.75 C 5.101562 -22.75 5.296875 -22.5625 5.296875 -22.1875 L 5.296875 -13.359375 L 9.671875 -22.328125 C 9.816406 -22.609375 10.035156 -22.75 10.328125 -22.75 L 13.3125 -22.75 C 13.519531 -22.75 13.660156 -22.6875 13.734375 -22.5625 C 13.804688 -22.4375 13.796875 -22.269531 13.703125 -22.0625 L 8.875 -12.140625 L 14.015625 -0.65625 C 14.109375 -0.46875 14.117188 -0.3125 14.046875 -0.1875 C 13.972656 -0.0625 13.820312 0 13.59375 0 Z M 13.59375 0 " />
            </g>
        </g>
    </g>
    <g fill="#f9fefd" fill-opacity="1">
        <g transform="translate(224.88173, 48.358908)">
            <g>
                <path
                    d="M 8.921875 -13.25 L 8.921875 -22.296875 C 8.921875 -22.597656 9.078125 -22.75 9.390625 -22.75 L 12.3125 -22.75 C 12.632812 -22.75 12.796875 -22.597656 12.796875 -22.296875 L 12.796875 -0.453125 C 12.796875 -0.148438 12.632812 0 12.3125 0 L 9.390625 0 C 9.078125 0 8.921875 -0.148438 8.921875 -0.453125 L 8.921875 -9.5 L 5.296875 -9.5 L 5.296875 -0.453125 C 5.296875 -0.148438 5.140625 0 4.828125 0 L 1.90625 0 C 1.582031 0 1.421875 -0.148438 1.421875 -0.453125 L 1.421875 -22.296875 C 1.421875 -22.597656 1.582031 -22.75 1.90625 -22.75 L 4.828125 -22.75 C 5.140625 -22.75 5.296875 -22.597656 5.296875 -22.296875 L 5.296875 -13.25 Z M 8.921875 -13.25 " />
            </g>
        </g>
    </g>
    <g fill="#f9fefd" fill-opacity="1">
        <g transform="translate(245.014847, 48.358908)">
            <g>
                <path
                    d="M 15.125 0 L 12.109375 0 C 11.867188 0 11.71875 -0.128906 11.65625 -0.390625 L 10.859375 -4.546875 L 5.796875 -4.546875 L 5.03125 -0.390625 C 4.976562 -0.128906 4.828125 0 4.578125 0 L 1.53125 0 C 1.195312 0 1.078125 -0.160156 1.171875 -0.484375 L 5.890625 -22.359375 C 5.941406 -22.617188 6.101562 -22.75 6.375 -22.75 L 10.328125 -22.75 C 10.585938 -22.75 10.75 -22.617188 10.8125 -22.359375 L 15.53125 -0.484375 C 15.582031 -0.160156 15.445312 0 15.125 0 Z M 10.15625 -7.84375 L 8.328125 -17.78125 L 6.515625 -7.84375 Z M 10.15625 -7.84375 " />
            </g>
        </g>
    </g>
    <g fill="#f9fefd" fill-opacity="1">
        <g transform="translate(267.59332, 48.358908)">
            <g>
                <path
                    d="M 10.15625 -22.75 L 13.109375 -22.75 C 13.410156 -22.75 13.5625 -22.597656 13.5625 -22.296875 L 13.5625 -0.453125 C 13.5625 -0.148438 13.410156 0 13.109375 0 L 10.296875 0 C 10.023438 0 9.851562 -0.125 9.78125 -0.375 L 5.4375 -12.515625 L 5.296875 -12.515625 L 5.296875 -0.453125 C 5.296875 -0.148438 5.140625 0 4.828125 0 L 1.875 0 C 1.570312 0 1.421875 -0.148438 1.421875 -0.453125 L 1.421875 -22.296875 C 1.421875 -22.597656 1.570312 -22.75 1.875 -22.75 L 4.6875 -22.75 C 4.957031 -22.75 5.128906 -22.625 5.203125 -22.375 L 9.53125 -10.296875 L 9.703125 -10.296875 L 9.703125 -22.296875 C 9.703125 -22.597656 9.851562 -22.75 10.15625 -22.75 Z M 10.15625 -22.75 " />
            </g>
        </g>
    </g>
    <g fill="#f9fefd" fill-opacity="1">
        <g transform="translate(288.49417, 48.358908)">
            <g>
                <path
                    d="M 10.15625 -22.75 L 13.109375 -22.75 C 13.410156 -22.75 13.5625 -22.597656 13.5625 -22.296875 L 13.5625 -0.453125 C 13.5625 -0.148438 13.410156 0 13.109375 0 L 10.296875 0 C 10.023438 0 9.851562 -0.125 9.78125 -0.375 L 5.4375 -12.515625 L 5.296875 -12.515625 L 5.296875 -0.453125 C 5.296875 -0.148438 5.140625 0 4.828125 0 L 1.875 0 C 1.570312 0 1.421875 -0.148438 1.421875 -0.453125 L 1.421875 -22.296875 C 1.421875 -22.597656 1.570312 -22.75 1.875 -22.75 L 4.6875 -22.75 C 4.957031 -22.75 5.128906 -22.625 5.203125 -22.375 L 9.53125 -10.296875 L 9.703125 -10.296875 L 9.703125 -22.296875 C 9.703125 -22.597656 9.851562 -22.75 10.15625 -22.75 Z M 10.15625 -22.75 " />
            </g>
        </g>
    </g>
    <g fill="#f9fefd" fill-opacity="1">
        <g transform="translate(309.395021, 48.358908)">
            <g>
                <path
                    d="M 15.125 0 L 12.109375 0 C 11.867188 0 11.71875 -0.128906 11.65625 -0.390625 L 10.859375 -4.546875 L 5.796875 -4.546875 L 5.03125 -0.390625 C 4.976562 -0.128906 4.828125 0 4.578125 0 L 1.53125 0 C 1.195312 0 1.078125 -0.160156 1.171875 -0.484375 L 5.890625 -22.359375 C 5.941406 -22.617188 6.101562 -22.75 6.375 -22.75 L 10.328125 -22.75 C 10.585938 -22.75 10.75 -22.617188 10.8125 -22.359375 L 15.53125 -0.484375 C 15.582031 -0.160156 15.445312 0 15.125 0 Z M 10.15625 -7.84375 L 8.328125 -17.78125 L 6.515625 -7.84375 Z M 10.15625 -7.84375 " />
            </g>
        </g>
    </g>
</svg>